{
    "asset" : {
        "generator" : "Khronos Blender glTF 2.0 I/O",
        "version" : "2.0"
    },
    "scene" : 0,
    "scenes" : [
        {
            "name" : "Scene",
            "nodes" : [
                0
            ]
        }
    ],
    "nodes" : [
        {
            "mesh" : 0,
            "name" : "Box001",
            "scale" : [
                0.02539999969303608,
                0.02539999969303608,
                0.02539999969303608
            ],
            "translation" : [
                2.570665121078491,
                0,
                0.10931890457868576
            ]
        }
    ],
    "animations" : [
        {
            "channels" : [
                {
                    "sampler" : 0,
                    "target" : {
                        "node" : 0,
                        "path" : "translation"
                    }
                },
                {
                    "sampler" : 1,
                    "target" : {
                        "node" : 0,
                        "path" : "rotation"
                    }
                },
                {
                    "sampler" : 2,
                    "target" : {
                        "node" : 0,
                        "path" : "scale"
                    }
                }
            ],
            "name" : "Box001|Take 001|BaseLayer",
            "samplers" : [
                {
                    "input" : 50,
                    "interpolation" : "STEP",
                    "output" : 51
                },
                {
                    "input" : 52,
                    "interpolation" : "STEP",
                    "output" : 53
                },
                {
                    "input" : 54,
                    "interpolation" : "STEP",
                    "output" : 55
                }
            ]
        }
    ],
    "materials" : [
        {
            "name" : "Material.003",
            "pbrMetallicRoughness" : {
                "baseColorTexture" : {
                    "index" : 0,
                    "texCoord" : 0
                },
                "metallicFactor" : 0,
                "roughnessFactor" : 0.5
            }
        },
        {
            "name" : "black",
            "pbrMetallicRoughness" : {}
        },
        {
            "name" : "Material.004",
            "pbrMetallicRoughness" : {
                "baseColorTexture" : {
                    "index" : 1,
                    "texCoord" : 0
                },
                "metallicFactor" : 0,
                "roughnessFactor" : 0.5
            }
        },
        {
            "name" : "96,96,96",
            "pbrMetallicRoughness" : {}
        },
        {
            "name" : "02 - Default",
            "pbrMetallicRoughness" : {}
        },
        {
            "name" : "02 - Defaulto",
            "pbrMetallicRoughness" : {}
        },
        {
            "name" : "02 - Defaultooo",
            "pbrMetallicRoughness" : {}
        },
        {
            "name" : "02 - Defaultoooii",
            "pbrMetallicRoughness" : {}
        },
        {
            "name" : "02 - Defa",
            "pbrMetallicRoughness" : {}
        },
        {
            "name" : "02 - Defaoi",
            "pbrMetallicRoughness" : {}
        }
    ],
    "meshes" : [
        {
            "name" : "Untitled",
            "primitives" : [
                {
                    "attributes" : {
                        "POSITION" : 0,
                        "NORMAL" : 1,
                        "TEXCOORD_0" : 2,
                        "TEXCOORD_1" : 3
                    },
                    "indices" : 4,
                    "material" : 0
                },
                {
                    "attributes" : {
                        "POSITION" : 5,
                        "NORMAL" : 6,
                        "TEXCOORD_0" : 7,
                        "TEXCOORD_1" : 8
                    },
                    "indices" : 9,
                    "material" : 1
                },
                {
                    "attributes" : {
                        "POSITION" : 10,
                        "NORMAL" : 11,
                        "TEXCOORD_0" : 12,
                        "TEXCOORD_1" : 13
                    },
                    "indices" : 14,
                    "material" : 2
                },
                {
                    "attributes" : {
                        "POSITION" : 15,
                        "NORMAL" : 16,
                        "TEXCOORD_0" : 17,
                        "TEXCOORD_1" : 18
                    },
                    "indices" : 19,
                    "material" : 3
                },
                {
                    "attributes" : {
                        "POSITION" : 20,
                        "NORMAL" : 21,
                        "TEXCOORD_0" : 22,
                        "TEXCOORD_1" : 23
                    },
                    "indices" : 24,
                    "material" : 4
                },
                {
                    "attributes" : {
                        "POSITION" : 25,
                        "NORMAL" : 26,
                        "TEXCOORD_0" : 27,
                        "TEXCOORD_1" : 28
                    },
                    "indices" : 29,
                    "material" : 5
                },
                {
                    "attributes" : {
                        "POSITION" : 30,
                        "NORMAL" : 31,
                        "TEXCOORD_0" : 32,
                        "TEXCOORD_1" : 33
                    },
                    "indices" : 34,
                    "material" : 6
                },
                {
                    "attributes" : {
                        "POSITION" : 35,
                        "NORMAL" : 36,
                        "TEXCOORD_0" : 37,
                        "TEXCOORD_1" : 38
                    },
                    "indices" : 39,
                    "material" : 7
                },
                {
                    "attributes" : {
                        "POSITION" : 40,
                        "NORMAL" : 41,
                        "TEXCOORD_0" : 42,
                        "TEXCOORD_1" : 43
                    },
                    "indices" : 44,
                    "material" : 8
                },
                {
                    "attributes" : {
                        "POSITION" : 45,
                        "NORMAL" : 46,
                        "TEXCOORD_0" : 47,
                        "TEXCOORD_1" : 48
                    },
                    "indices" : 49,
                    "material" : 9
                }
            ]
        }
    ],
    "textures" : [
        {
            "source" : 0
        },
        {
            "source" : 1
        }
    ],
    "images" : [
        {
            "mimeType" : "image/jpeg",
            "name" : "Map #3",
            "uri" : "Map3.jpg"
        },
        {
            "mimeType" : "image/png",
            "name" : "wheel bus1.bmp",
            "uri" : "wheel bus1.png"
        }
    ],
    "accessors" : [
        {
            "bufferView" : 0,
            "componentType" : 5126,
            "count" : 1482,
            "max" : [
                540.9268188476562,
                300.5438537597656,
                117.3626708984375
            ],
            "min" : [
                -539.93115234375,
                38.246849060058594,
                -126.6832275390625
            ],
            "type" : "VEC3"
        },
        {
            "bufferView" : 1,
            "componentType" : 5126,
            "count" : 1482,
            "type" : "VEC3"
        },
        {
            "bufferView" : 2,
            "componentType" : 5126,
            "count" : 1482,
            "type" : "VEC2"
        },
        {
            "bufferView" : 3,
            "componentType" : 5126,
            "count" : 1482,
            "type" : "VEC2"
        },
        {
            "bufferView" : 4,
            "componentType" : 5123,
            "count" : 3816,
            "type" : "SCALAR"
        },
        {
            "bufferView" : 5,
            "componentType" : 5126,
            "count" : 454,
            "max" : [
                368.2145690917969,
                108.34507751464844,
                114.35673522949219
            ],
            "min" : [
                -356.7701110839844,
                11.235210418701172,
                -129.75506591796875
            ],
            "type" : "VEC3"
        },
        {
            "bufferView" : 6,
            "componentType" : 5126,
            "count" : 454,
            "type" : "VEC3"
        },
        {
            "bufferView" : 7,
            "componentType" : 5126,
            "count" : 454,
            "type" : "VEC2"
        },
        {
            "bufferView" : 8,
            "componentType" : 5126,
            "count" : 454,
            "type" : "VEC2"
        },
        {
            "bufferView" : 9,
            "componentType" : 5123,
            "count" : 1824,
            "type" : "SCALAR"
        },
        {
            "bufferView" : 10,
            "componentType" : 5126,
            "count" : 288,
            "max" : [
                349.97235107421875,
                90.09314727783203,
                125.70846557617188
            ],
            "min" : [
                -338.52789306640625,
                29.48713493347168,
                -141.10678100585938
            ],
            "type" : "VEC3"
        },
        {
            "bufferView" : 11,
            "componentType" : 5126,
            "count" : 288,
            "type" : "VEC3"
        },
        {
            "bufferView" : 12,
            "componentType" : 5126,
            "count" : 288,
            "type" : "VEC2"
        },
        {
            "bufferView" : 13,
            "componentType" : 5126,
            "count" : 288,
            "type" : "VEC2"
        },
        {
            "bufferView" : 14,
            "componentType" : 5123,
            "count" : 840,
            "type" : "SCALAR"
        },
        {
            "bufferView" : 15,
            "componentType" : 5126,
            "count" : 192,
            "max" : [
                349.97235107421875,
                90.09314727783203,
                113.84494018554688
            ],
            "min" : [
                -338.52789306640625,
                29.48713493347168,
                -129.24327087402344
            ],
            "type" : "VEC3"
        },
        {
            "bufferView" : 16,
            "componentType" : 5126,
            "count" : 192,
            "type" : "VEC3"
        },
        {
            "bufferView" : 17,
            "componentType" : 5126,
            "count" : 192,
            "type" : "VEC2"
        },
        {
            "bufferView" : 18,
            "componentType" : 5126,
            "count" : 192,
            "type" : "VEC2"
        },
        {
            "bufferView" : 19,
            "componentType" : 5123,
            "count" : 576,
            "type" : "SCALAR"
        },
        {
            "bufferView" : 20,
            "componentType" : 5126,
            "count" : 74,
            "max" : [
                -527.258544921875,
                92.15592956542969,
                105.35419464111328
            ],
            "min" : [
                -535.4366455078125,
                79.494140625,
                92.4970703125
            ],
            "type" : "VEC3"
        },
        {
            "bufferView" : 21,
            "componentType" : 5126,
            "count" : 74,
            "type" : "VEC3"
        },
        {
            "bufferView" : 22,
            "componentType" : 5126,
            "count" : 74,
            "type" : "VEC2"
        },
        {
            "bufferView" : 23,
            "componentType" : 5126,
            "count" : 74,
            "type" : "VEC2"
        },
        {
            "bufferView" : 24,
            "componentType" : 5123,
            "count" : 204,
            "type" : "SCALAR"
        },
        {
            "bufferView" : 25,
            "componentType" : 5126,
            "count" : 74,
            "max" : [
                -527.258544921875,
                115.33639526367188,
                105.35419464111328
            ],
            "min" : [
                -535.4365844726562,
                102.67459106445312,
                92.4970703125
            ],
            "type" : "VEC3"
        },
        {
            "bufferView" : 26,
            "componentType" : 5126,
            "count" : 74,
            "type" : "VEC3"
        },
        {
            "bufferView" : 27,
            "componentType" : 5126,
            "count" : 74,
            "type" : "VEC2"
        },
        {
            "bufferView" : 28,
            "componentType" : 5126,
            "count" : 74,
            "type" : "VEC2"
        },
        {
            "bufferView" : 29,
            "componentType" : 5123,
            "count" : 204,
            "type" : "SCALAR"
        },
        {
            "bufferView" : 30,
            "componentType" : 5126,
            "count" : 74,
            "max" : [
                -527.258544921875,
                138.51686096191406,
                105.35419464111328
            ],
            "min" : [
                -535.4365844726562,
                125.85505676269531,
                92.4970703125
            ],
            "type" : "VEC3"
        },
        {
            "bufferView" : 31,
            "componentType" : 5126,
            "count" : 74,
            "type" : "VEC3"
        },
        {
            "bufferView" : 32,
            "componentType" : 5126,
            "count" : 74,
            "type" : "VEC2"
        },
        {
            "bufferView" : 33,
            "componentType" : 5126,
            "count" : 74,
            "type" : "VEC2"
        },
        {
            "bufferView" : 34,
            "componentType" : 5123,
            "count" : 204,
            "type" : "SCALAR"
        },
        {
            "bufferView" : 35,
            "componentType" : 5126,
            "count" : 74,
            "max" : [
                -527.2586059570312,
                92.15592956542969,
                -104.23766326904297
            ],
            "min" : [
                -535.4366455078125,
                79.494140625,
                -117.09477996826172
            ],
            "type" : "VEC3"
        },
        {
            "bufferView" : 36,
            "componentType" : 5126,
            "count" : 74,
            "type" : "VEC3"
        },
        {
            "bufferView" : 37,
            "componentType" : 5126,
            "count" : 74,
            "type" : "VEC2"
        },
        {
            "bufferView" : 38,
            "componentType" : 5126,
            "count" : 74,
            "type" : "VEC2"
        },
        {
            "bufferView" : 39,
            "componentType" : 5123,
            "count" : 204,
            "type" : "SCALAR"
        },
        {
            "bufferView" : 40,
            "componentType" : 5126,
            "count" : 74,
            "max" : [
                -527.258544921875,
                115.33639526367188,
                -104.23766326904297
            ],
            "min" : [
                -535.4366455078125,
                102.67459106445312,
                -117.09477996826172
            ],
            "type" : "VEC3"
        },
        {
            "bufferView" : 41,
            "componentType" : 5126,
            "count" : 74,
            "type" : "VEC3"
        },
        {
            "bufferView" : 42,
            "componentType" : 5126,
            "count" : 74,
            "type" : "VEC2"
        },
        {
            "bufferView" : 43,
            "componentType" : 5126,
            "count" : 74,
            "type" : "VEC2"
        },
        {
            "bufferView" : 44,
            "componentType" : 5123,
            "count" : 204,
            "type" : "SCALAR"
        },
        {
            "bufferView" : 45,
            "componentType" : 5126,
            "count" : 74,
            "max" : [
                -527.258544921875,
                138.51686096191406,
                -104.23766326904297
            ],
            "min" : [
                -535.4366455078125,
                125.85505676269531,
                -117.09477996826172
            ],
            "type" : "VEC3"
        },
        {
            "bufferView" : 46,
            "componentType" : 5126,
            "count" : 74,
            "type" : "VEC3"
        },
        {
            "bufferView" : 47,
            "componentType" : 5126,
            "count" : 74,
            "type" : "VEC2"
        },
        {
            "bufferView" : 48,
            "componentType" : 5126,
            "count" : 74,
            "type" : "VEC2"
        },
        {
            "bufferView" : 49,
            "componentType" : 5123,
            "count" : 204,
            "type" : "SCALAR"
        },
        {
            "bufferView" : 50,
            "componentType" : 5126,
            "count" : 1,
            "max" : [
                0.03333333333333333
            ],
            "min" : [
                0.03333333333333333
            ],
            "type" : "SCALAR"
        },
        {
            "bufferView" : 51,
            "componentType" : 5126,
            "count" : 1,
            "type" : "VEC3"
        },
        {
            "bufferView" : 52,
            "componentType" : 5126,
            "count" : 1,
            "max" : [
                0.03333333333333333
            ],
            "min" : [
                0.03333333333333333
            ],
            "type" : "SCALAR"
        },
        {
            "bufferView" : 53,
            "componentType" : 5126,
            "count" : 1,
            "type" : "VEC4"
        },
        {
            "bufferView" : 54,
            "componentType" : 5126,
            "count" : 1,
            "max" : [
                0.03333333333333333
            ],
            "min" : [
                0.03333333333333333
            ],
            "type" : "SCALAR"
        },
        {
            "bufferView" : 55,
            "componentType" : 5126,
            "count" : 1,
            "type" : "VEC3"
        }
    ],
    "bufferViews" : [
        {
            "buffer" : 0,
            "byteLength" : 17784,
            "byteOffset" : 0
        },
        {
            "buffer" : 0,
            "byteLength" : 17784,
            "byteOffset" : 17784
        },
        {
            "buffer" : 0,
            "byteLength" : 11856,
            "byteOffset" : 35568
        },
        {
            "buffer" : 0,
            "byteLength" : 11856,
            "byteOffset" : 47424
        },
        {
            "buffer" : 0,
            "byteLength" : 7632,
            "byteOffset" : 59280
        },
        {
            "buffer" : 0,
            "byteLength" : 5448,
            "byteOffset" : 66912
        },
        {
            "buffer" : 0,
            "byteLength" : 5448,
            "byteOffset" : 72360
        },
        {
            "buffer" : 0,
            "byteLength" : 3632,
            "byteOffset" : 77808
        },
        {
            "buffer" : 0,
            "byteLength" : 3632,
            "byteOffset" : 81440
        },
        {
            "buffer" : 0,
            "byteLength" : 3648,
            "byteOffset" : 85072
        },
        {
            "buffer" : 0,
            "byteLength" : 3456,
            "byteOffset" : 88720
        },
        {
            "buffer" : 0,
            "byteLength" : 3456,
            "byteOffset" : 92176
        },
        {
            "buffer" : 0,
            "byteLength" : 2304,
            "byteOffset" : 95632
        },
        {
            "buffer" : 0,
            "byteLength" : 2304,
            "byteOffset" : 97936
        },
        {
            "buffer" : 0,
            "byteLength" : 1680,
            "byteOffset" : 100240
        },
        {
            "buffer" : 0,
            "byteLength" : 2304,
            "byteOffset" : 101920
        },
        {
            "buffer" : 0,
            "byteLength" : 2304,
            "byteOffset" : 104224
        },
        {
            "buffer" : 0,
            "byteLength" : 1536,
            "byteOffset" : 106528
        },
        {
            "buffer" : 0,
            "byteLength" : 1536,
            "byteOffset" : 108064
        },
        {
            "buffer" : 0,
            "byteLength" : 1152,
            "byteOffset" : 109600
        },
        {
            "buffer" : 0,
            "byteLength" : 888,
            "byteOffset" : 110752
        },
        {
            "buffer" : 0,
            "byteLength" : 888,
            "byteOffset" : 111640
        },
        {
            "buffer" : 0,
            "byteLength" : 592,
            "byteOffset" : 112528
        },
        {
            "buffer" : 0,
            "byteLength" : 592,
            "byteOffset" : 113120
        },
        {
            "buffer" : 0,
            "byteLength" : 408,
            "byteOffset" : 113712
        },
        {
            "buffer" : 0,
            "byteLength" : 888,
            "byteOffset" : 114120
        },
        {
            "buffer" : 0,
            "byteLength" : 888,
            "byteOffset" : 115008
        },
        {
            "buffer" : 0,
            "byteLength" : 592,
            "byteOffset" : 115896
        },
        {
            "buffer" : 0,
            "byteLength" : 592,
            "byteOffset" : 116488
        },
        {
            "buffer" : 0,
            "byteLength" : 408,
            "byteOffset" : 117080
        },
        {
            "buffer" : 0,
            "byteLength" : 888,
            "byteOffset" : 117488
        },
        {
            "buffer" : 0,
            "byteLength" : 888,
            "byteOffset" : 118376
        },
        {
            "buffer" : 0,
            "byteLength" : 592,
            "byteOffset" : 119264
        },
        {
            "buffer" : 0,
            "byteLength" : 592,
            "byteOffset" : 119856
        },
        {
            "buffer" : 0,
            "byteLength" : 408,
            "byteOffset" : 120448
        },
        {
            "buffer" : 0,
            "byteLength" : 888,
            "byteOffset" : 120856
        },
        {
            "buffer" : 0,
            "byteLength" : 888,
            "byteOffset" : 121744
        },
        {
            "buffer" : 0,
            "byteLength" : 592,
            "byteOffset" : 122632
        },
        {
            "buffer" : 0,
            "byteLength" : 592,
            "byteOffset" : 123224
        },
        {
            "buffer" : 0,
            "byteLength" : 408,
            "byteOffset" : 123816
        },
        {
            "buffer" : 0,
            "byteLength" : 888,
            "byteOffset" : 124224
        },
        {
            "buffer" : 0,
            "byteLength" : 888,
            "byteOffset" : 125112
        },
        {
            "buffer" : 0,
            "byteLength" : 592,
            "byteOffset" : 126000
        },
        {
            "buffer" : 0,
            "byteLength" : 592,
            "byteOffset" : 126592
        },
        {
            "buffer" : 0,
            "byteLength" : 408,
            "byteOffset" : 127184
        },
        {
            "buffer" : 0,
            "byteLength" : 888,
            "byteOffset" : 127592
        },
        {
            "buffer" : 0,
            "byteLength" : 888,
            "byteOffset" : 128480
        },
        {
            "buffer" : 0,
            "byteLength" : 592,
            "byteOffset" : 129368
        },
        {
            "buffer" : 0,
            "byteLength" : 592,
            "byteOffset" : 129960
        },
        {
            "buffer" : 0,
            "byteLength" : 408,
            "byteOffset" : 130552
        },
        {
            "buffer" : 0,
            "byteLength" : 4,
            "byteOffset" : 130960
        },
        {
            "buffer" : 0,
            "byteLength" : 12,
            "byteOffset" : 130964
        },
        {
            "buffer" : 0,
            "byteLength" : 4,
            "byteOffset" : 130976
        },
        {
            "buffer" : 0,
            "byteLength" : 16,
            "byteOffset" : 130980
        },
        {
            "buffer" : 0,
            "byteLength" : 4,
            "byteOffset" : 130996
        },
        {
            "buffer" : 0,
            "byteLength" : 12,
            "byteOffset" : 131000
        }
    ],
    "buffers" : [
        {
            "byteLength" : 131012,
            "uri" : "BUS.bin"
        }
    ]
}
