{
	"accessors" :
	[
		{
			"bufferView" : 2,
			"byteOffset" : 0,
			"componentType" : 5126,
			"count" : 396,
			"max" :
			[
				1,
				1,
				1,
				1
			],
			"min" :
			[
				0.05637409910559654,
				0.1011451631784439,
				0.1275297701358795,
				1
			],
			"name" : "accessor_color_m0-PolyPaper16_-171340",
			"type" : "VEC4"
		},
		{
			"bufferView" : 0,
			"byteOffset" : 0,
			"componentType" : 5123,
			"count" : 576,
			"max" :
			[
				395
			],
			"min" :
			[
				0
			],
			"name" : "accessor_indices_0_m0-PolyPaper16_-171340",
			"type" : "SCALAR"
		},
		{
			"bufferView" : 1,
			"byteOffset" : 4752,
			"componentType" : 5126,
			"count" : 396,
			"max" :
			[
				1,
				1,
				1
			],
			"min" :
			[
				-1,
				-1,
				-1
			],
			"name" : "accessor_normal_m0-PolyPaper16_-171340",
			"type" : "VEC3"
		},
		{
			"bufferView" : 1,
			"byteOffset" : 0,
			"componentType" : 5126,
			"count" : 396,
			"max" :
			[
				-0.0600215,
				4.379979,
				1.110028
			],
			"min" :
			[
				-1.224961,
				1.304962,
				0.5800276
			],
			"name" : "accessor_position_m0-PolyPaper16_-171340",
			"type" : "VEC3"
		}
	],
	"asset" :
	{
		"copyright" : "Unknown",
		"generator" : "glTF 1-to-2 Upgrader for Google Blocks",
		"version" : "2.0"
	},
	"bufferViews" :
	[
		{
			"buffer" : 0,
			"byteLength" : 1152,
			"byteOffset" : 0,
			"name" : "ushortBufferView",
			"target" : 34963
		},
		{
			"buffer" : 0,
			"byteLength" : 9504,
			"byteOffset" : 1152,
			"byteStride" : 12,
			"name" : "vec3BufferView",
			"target" : 34962
		},
		{
			"buffer" : 0,
			"byteLength" : 6336,
			"byteOffset" : 10656,
			"byteStride" : 16,
			"name" : "vec4BufferView",
			"target" : 34962
		}
	],
	"buffers" :
	[
		{
			"byteLength" : 16992,
			"name" : "streetlightmodel",
			"uri" : "streetlightmodel.bin"
		}
	],
	"materials" :
	[
		{
			"alphaMode" : "OPAQUE",
			"doubleSided" : false,
			"name" : "BlocksPaper",
			"pbrMetallicRoughness" :
			{
				"baseColorFactor" :
				[
					1,
					1,
					1,
					1
				],
				"metallicFactor" : 0,
				"roughnessFactor" : 0.6
			}
		},
		{
			"alphaMode" : "BLEND",
			"doubleSided" : false,
			"name" : "BlocksGlass",
			"pbrMetallicRoughness" :
			{
				"baseColorFactor" :
				[
					0.2,
					0.2,
					1,
					0.3
				],
				"metallicFactor" : 1,
				"roughnessFactor" : 0.4
			}
		},
		{
			"alphaMode" : "OPAQUE",
			"doubleSided" : true,
			"name" : "BlocksGem",
			"pbrMetallicRoughness" :
			{
				"baseColorFactor" :
				[
					1,
					0.4,
					1,
					1
				],
				"metallicFactor" : 0,
				"roughnessFactor" : 0.1
			}
		}
	],
	"meshes" :
	[
		{
			"name" : "mesh_m0-PolyPaper16_-171340",
			"primitives" :
			[
				{
					"attributes" :
					{
						"COLOR_0" : 0,
						"NORMAL" : 2,
						"POSITION" : 3
					},
					"indices" : 1,
					"material" : 0,
					"mode" : 4
				}
			]
		}
	],
	"nodes" :
	[
		{
			"matrix" :
			[
				1,
				0,
				0,
				0,
				0,
				1,
				0,
				0,
				0,
				0,
				1,
				0,
				0,
				0,
				0,
				1
			],
			"mesh" : 0,
			"name" : "node_MeshObject1788559872-PolyPaper16"
		}
	],
	"scene" : 0,
	"scenes" :
	[
		{
			"extras" : {},
			"name" : "defaultScene",
			"nodes" :
			[
				0
			]
		}
	]
}
